<?xml version="1.0" encoding="utf-8"?>
<!-- Generator: Adobe Illustrator 21.1.0, SVG Export Plug-In . SVG Version: 6.00 Build 0)  -->
<svg version="1.1" id="Calque_1" xmlns="http://www.w3.org/2000/svg" xmlns:xlink="http://www.w3.org/1999/xlink" x="0px" y="0px"
	 viewBox="0 0 19 19" style="enable-background:new 0 0 19 19;" xml:space="preserve">
<style type="text/css">
	.st0{fill:#FC6D21;}
</style>
<title>icon_close</title>
<desc>Created with Sketch.</desc>
<g id="Page-1">
	<g id="_x35_.-TIMELINE" transform="translate(-681.000000, -237.000000)">
		<g id="bulle-300-x-435" transform="translate(420.000000, 216.000000)">
			<g id="icon_close" transform="translate(261.000000, 21.000000)">
				<path class="st0" d="M9.2,5.7l4.9-4.9c1-1,2.6-1,3.5,0s1,2.6,0,3.5l-4.9,4.9l4.9,4.9c1,1,1,2.6,0,3.5s-2.6,1-3.5,0l-4.9-4.9
					l-4.9,4.9c-1,1-2.6,1-3.5,0s-1-2.6,0-3.5l4.9-4.9L0.7,4.3c-1-1-1-2.6,0-3.5s2.6-1,3.5,0L9.2,5.7z"/>
			</g>
		</g>
	</g>
</g>
</svg>
