<?xml version="1.0" encoding="UTF-8"?>
<svg width="24px" height="24px" viewBox="0 0 24 24" version="1.1" xmlns="http://www.w3.org/2000/svg" xmlns:xlink="http://www.w3.org/1999/xlink">
    <!-- Generator: sketchtool 49.2 (51160) - http://www.bohemiancoding.com/sketch -->
    <title>715889E2-58BE-48E9-BD80-765C72E0456A</title>
    <desc>Created with sketchtool.</desc>
    <defs></defs>
    <g id="Page-1" stroke="none" stroke-width="1" fill="none" fill-rule="evenodd">
        <g id="2.-LOADING-ARTI-ANIM" transform="translate(-1386.000000, -30.000000)" fill="#FFFFFF">
            <g id="icon_infos/normal" transform="translate(1386.000000, 30.000000)">
                <path d="M12,24 C5.372583,24 0,18.627417 0,12 C0,5.372583 5.372583,0 12,0 C18.627417,0 24,5.372583 24,12 C24,18.627417 18.627417,24 12,24 Z M12.4040634,7.60014736 C13.1142497,7.60014736 13.6078292,7.45455917 13.8848019,7.16338279 C14.1617745,6.87398188 14.3002608,6.52243967 14.3002608,6.10875615 L14.3002608,5.49266955 C14.3002608,5.06478231 14.1617745,4.70968916 13.8848019,4.42561464 C13.6078292,4.14331559 13.1142497,4.00127834 12.4040634,4.00127834 C11.6938772,4.00127834 11.2002977,4.14331559 10.923325,4.42561464 C10.6463524,4.70968916 10.5078661,5.06478231 10.5078661,5.49266955 L10.5078661,6.10875615 C10.5078661,6.52243967 10.6463524,6.87398188 10.923325,7.16338279 C11.2002977,7.45455917 11.6938772,7.60014736 12.4040634,7.60014736 Z M7.33333333,17.5303272 L7.33333333,20 L17.2191265,20 L17.2191265,17.5303272 L13.980677,17.5303272 L13.980677,9.00631622 L7.33333333,9.00631622 L7.33333333,11.47954 L10.8274499,11.47954 L10.8274499,17.5303272 L7.33333333,17.5303272 Z" id="Combined-Shape"></path>
            </g>
        </g>
    </g>
</svg>