<?xml version="1.0" encoding="UTF-8"?>
<svg width="36px" height="36px" viewBox="0 0 36 36" version="1.1" xmlns="http://www.w3.org/2000/svg" xmlns:xlink="http://www.w3.org/1999/xlink">
    <!-- Generator: Sketch 49.3 (51167) - http://www.bohemiancoding.com/sketch -->
    <title>icon_infos</title>
    <desc>Created with Sketch.</desc>
    <defs></defs>
    <g id="icon_infos" stroke="none" stroke-width="1" fill="none" fill-rule="evenodd">
        <path d="M18.6060952,11.400221 C17.5408157,11.400221 16.8004465,11.1818388 16.3849875,10.7450742 C15.9695286,10.3109728 15.7617991,9.7836595 15.7617991,9.16313423 L15.7617991,8.23900432 C15.7617991,7.59717346 15.9695286,7.06453374 16.3849875,6.63842197 C16.8004465,6.21497339 17.5408157,6.0019175 18.6060952,6.0019175 C19.6713746,6.0019175 20.4117438,6.21497339 20.8272028,6.63842197 C21.2426618,7.06453374 21.4503913,7.59717346 21.4503913,8.23900432 L21.4503913,9.16313423 C21.4503913,9.7836595 21.2426618,10.3109728 20.8272028,10.7450742 C20.4117438,11.1818388 19.6713746,11.400221 18.6060952,11.400221 Z" id="Page-1" fill="#FFFFFF"></path>
        <polygon id="Page-1" fill="#FFFFFF" points="11 26.2954908 16.2411748 26.2954908 16.2411748 17.21931 11 17.21931 11 13.5094743 20.9710155 13.5094743 20.9710155 26.2954908 25.8286898 26.2954908 25.8286898 30 11 30"></polygon>
        <circle id="Oval" stroke="#FFFFFF" stroke-width="3" cx="18" cy="18" r="19.5"></circle>
    </g>
</svg>