<?xml version="1.0" encoding="UTF-8"?>
<svg width="66px" height="36px" viewBox="0 0 66 36" version="1.1" xmlns="http://www.w3.org/2000/svg" xmlns:xlink="http://www.w3.org/1999/xlink">
    <!-- Generator: Sketch 49.3 (51167) - http://www.bohemiancoding.com/sketch -->
    <title>icon_arti/normal</title>
    <desc>Created with Sketch.</desc>
    <defs></defs>
    <g id="icon_arti/normal" stroke="none" stroke-width="1" fill="none" fill-rule="evenodd">
        <path d="M18.6257669,16.0457143 C17.5076135,16.0457143 16.601227,16.9666971 16.601227,18.1028571 C16.601227,19.2388114 17.5076135,20.16 18.6257669,20.16 C19.7439202,20.16 20.6503067,19.2388114 20.6503067,18.1028571 C20.6503067,16.9666971 19.7439202,16.0457143 18.6257669,16.0457143" id="Fill-1" fill="#FFFFFF"></path>
        <path d="M47.5766871,16.0457143 C46.4587362,16.0457143 45.5521472,16.9666971 45.5521472,18.1028571 C45.5521472,19.2388114 46.4587362,20.16 47.5766871,20.16 C48.694638,20.16 49.601227,19.2388114 49.601227,18.1028571 C49.601227,16.9666971 48.694638,16.0457143 47.5766871,16.0457143" id="Fill-3" fill="#FFFFFF"></path>
        <path d="M51.9183541,20.5141935 C52.0143258,20.2709866 52.1207143,20.0343332 52.2375819,19.8047116 C52.4467264,19.2308412 52.5552147,18.6234778 52.5552147,18 C52.5552147,15.1307449 50.2754683,12.8142857 47.4754601,12.8142857 C44.6754519,12.8142857 42.3957055,15.1307449 42.3957055,18 C42.3957055,20.8692551 44.6754519,23.1857143 47.4754601,23.1857143 C49.3403595,23.1857143 51.0279076,22.1506091 51.9183541,20.5141935 Z M14.0814303,20.5141535 C14.9720895,22.1506304 16.659666,23.1857143 18.5245399,23.1857143 C21.3245481,23.1857143 23.6042945,20.8692551 23.6042945,18 C23.6042945,15.1307449 21.3245481,12.8142857 18.5245399,12.8142857 C15.7245317,12.8142857 13.4447853,15.1307449 13.4447853,18 C13.4447853,18.6232409 13.5533715,19.2307683 13.7626166,19.8050113 C13.8792537,20.0345029 13.9855366,20.2711128 14.0814303,20.5141535 Z M67.4419785,24.54 C67.0088683,28.1938503 64.1985586,31.1126478 60.6165644,31.650953 L60.6165644,35.3828571 C60.6165644,36.7741506 59.4973108,37.9114286 58.1042945,37.9114286 L7.89570552,37.9114286 C6.50286892,37.9114286 5.38343558,36.7741251 5.38343558,35.3828571 L5.38343558,31.650953 C1.80144141,31.1126478 -1.00886826,28.1938503 -1.44197854,24.54 L-1.5,24.54 L-1.5,5.55428571 C-1.5,3.5950151 0.072548096,1.99714286 2.02453988,1.99714286 C3.97653166,1.99714286 5.54907975,3.5950151 5.54907975,5.55428571 L5.54907975,8.76422327 C5.90995772,7.81655569 6.82153737,7.14 7.89570552,7.14 L14.493865,7.14 L14.493865,1.54285714 C14.493865,-0.132322039 15.8398671,-1.5 17.5122699,-1.5 C19.1846728,-1.5 20.5306748,-0.132322039 20.5306748,1.54285714 L20.5306748,7.14 L45.4693252,7.14 L45.4693252,1.54285714 C45.4693252,-0.132362722 46.8151632,-1.5 48.4877301,-1.5 C50.1602969,-1.5 51.506135,-0.132362722 51.506135,1.54285714 L51.506135,7.14 L58.1042945,7.14 C59.1785796,7.14 60.090069,7.81651332 60.4509202,8.7641557 L60.4509202,5.55428571 C60.4509202,3.59506337 62.0236245,1.99714286 63.9754601,1.99714286 C65.9272958,1.99714286 67.5,3.59506337 67.5,5.55428571 L67.5,24.54 L67.4419785,24.54 Z" id="Fill-5" stroke="#FFFFFF" stroke-width="3"></path>
        <path d="M39.5217391,33 L26.4782609,33 C24.5572174,33 23,31.43305 23,29.5 C23,27.56695 24.5572174,26 26.4782609,26 L39.5217391,26 C41.4427826,26 43,27.56695 43,29.5 C43,31.43305 41.4427826,33 39.5217391,33 Z" id="Path" fill="#FFFFFF"></path>
    </g>
</svg>