<?xml version="1.0" encoding="UTF-8"?>
<svg width="44px" height="24px" viewBox="0 0 44 24" version="1.1" xmlns="http://www.w3.org/2000/svg" xmlns:xlink="http://www.w3.org/1999/xlink">
    <!-- Generator: sketchtool 49.2 (51160) - http://www.bohemiancoding.com/sketch -->
    <title>20818666-7842-478D-BE84-AA894148F830</title>
    <desc>Created with sketchtool.</desc>
    <defs></defs>
    <g id="Page-1" stroke="none" stroke-width="1" fill="none" fill-rule="evenodd">
        <g id="2.-LOADING-ARTI-ANIM" transform="translate(-30.000000, -30.000000)" fill="#FFFFFF">
            <g id="icon_arti/hover" transform="translate(30.000000, 30.000000)">
                <path d="M12.4171779,10.5762712 C11.6717423,10.5762712 11.0674847,11.183322 11.0674847,11.9322034 C11.0674847,12.6809492 11.6717423,13.2881356 12.4171779,13.2881356 C13.1626135,13.2881356 13.7668712,12.6809492 13.7668712,11.9322034 C13.7668712,11.183322 13.1626135,10.5762712 12.4171779,10.5762712" id="Fill-1"></path>
                <path d="M31.7177914,10.5762712 C30.9724908,10.5762712 30.3680982,11.183322 30.3680982,11.9322034 C30.3680982,12.6809492 30.9724908,13.2881356 31.7177914,13.2881356 C32.463092,13.2881356 33.0674847,12.6809492 33.0674847,11.9322034 C33.0674847,11.183322 32.463092,10.5762712 31.7177914,10.5762712" id="Fill-3"></path>
                <path d="M31.6503067,16.2711864 C29.2277423,16.2711864 27.2638037,14.2981695 27.2638037,11.8644068 C27.2638037,9.43064407 29.2277423,7.45762712 31.6503067,7.45762712 C34.0728712,7.45762712 36.0368098,9.43064407 36.0368098,11.8644068 C36.0368098,12.4256271 35.9313988,12.9616271 35.7409571,13.4551864 C35.6588957,13.6097627 35.5862822,13.7698983 35.5227117,13.9347797 C34.7849693,15.3247458 33.3279755,16.2711864 31.6503067,16.2711864 Z M26.3478261,22 L17.6521739,22 C16.3714783,22 15.3333333,20.9553667 15.3333333,19.6666667 C15.3333333,18.3779667 16.3714783,17.3333333 17.6521739,17.3333333 L26.3478261,17.3333333 C27.6285217,17.3333333 28.6666667,18.3779667 28.6666667,19.6666667 C28.6666667,20.9553667 27.6285217,22 26.3478261,22 Z M8.47715337,13.9347797 C8.41358282,13.7698983 8.34096933,13.6096271 8.25904294,13.4550508 C8.0687362,12.9616271 7.96319018,12.4256271 7.96319018,11.8644068 C7.96319018,9.43064407 9.92712883,7.45762712 12.3496933,7.45762712 C14.7722577,7.45762712 16.7361963,9.43064407 16.7361963,11.8644068 C16.7361963,14.2981695 14.7722577,16.2711864 12.3496933,16.2711864 C10.6720245,16.2711864 9.21503067,15.3247458 8.47715337,13.9347797 Z M44,3.66101695 C44,2.91213559 43.3956074,2.30508475 42.6503067,2.30508475 C41.9050061,2.30508475 41.3006135,2.91213559 41.3006135,3.66101695 L41.3006135,11.4569492 C40.7811166,11.239322 40.211411,11.1186441 39.6134969,11.1186441 C39.5456074,11.1186441 39.4781227,11.120678 39.4110429,11.1237966 L39.4110429,6.37288136 C39.4110429,5.99850847 39.1089816,5.69491525 38.7361963,5.69491525 L33.3374233,5.69491525 L33.3374233,1.01694915 C33.3374233,0.455322034 32.8843313,0 32.3251534,0 C31.7659755,0 31.3128834,0.455322034 31.3128834,1.01694915 L31.3128834,5.69491525 L12.6871166,5.69491525 L12.6871166,1.01694915 C12.6871166,0.455322034 12.2338896,0 11.6748466,0 C11.1158037,0 10.6625767,0.455322034 10.6625767,1.01694915 L10.6625767,5.69491525 L5.26380368,5.69491525 C4.89115337,5.69491525 4.58895706,5.99850847 4.58895706,6.37288136 L4.58895706,11.1237966 C4.52174233,11.120678 4.45439264,11.1186441 4.38650307,11.1186441 C3.78858896,11.1186441 3.21888344,11.239322 2.6993865,11.4569492 L2.6993865,3.66101695 C2.6993865,2.91213559 2.09512883,2.30508475 1.34969325,2.30508475 C0.604257669,2.30508475 0,2.91213559 0,3.66101695 L0,15.1864407 L0.0141717791,15.1864407 C0.00566871166,15.2984407 0,15.4112542 0,15.5254237 C0,17.9591864 1.96393865,19.9322034 4.38650307,19.9322034 C4.45439264,19.9322034 4.52174233,19.9300339 4.58895706,19.9270508 L4.58895706,23.3220339 C4.58895706,23.6965424 4.89115337,24 5.26380368,24 L38.7361963,24 C39.1089816,24 39.4110429,23.6965424 39.4110429,23.3220339 L39.4110429,19.9270508 C39.4781227,19.9300339 39.5456074,19.9322034 39.6134969,19.9322034 C42.0360613,19.9322034 44,17.9591864 44,15.5254237 C44,15.4112542 43.9943313,15.2984407 43.9858282,15.1864407 L44,15.1864407 L44,3.66101695 Z" id="Fill-5"></path>
            </g>
        </g>
    </g>
</svg>