<?xml version="1.0" encoding="UTF-8"?>
<svg width="20px" height="19px" viewBox="0 0 20 19" version="1.1" xmlns="http://www.w3.org/2000/svg" xmlns:xlink="http://www.w3.org/1999/xlink">
    <!-- Generator: sketchtool 49.3 (51167) - http://www.bohemiancoding.com/sketch -->
    <title>DF6C8DB8-B6F0-4E68-9BAF-FEE3CBF9756D</title>
    <desc>Created with sketchtool.</desc>
    <defs></defs>
    <g id="Page-1" stroke="none" stroke-width="1" fill="none" fill-rule="evenodd">
        <g id="5.-TIMELINE-:clic-film-+-article" transform="translate(-1276.000000, -141.000000)" fill="#67C0FC">
            <g id="bulle-suite-film-copy" transform="translate(766.000000, 130.000000)">
                <g id="icon_close-bleu" transform="translate(511.000000, 11.000000)">
                    <path d="M9.40329358,7.37867966 L16.3143087,0.467664484 C16.9000952,-0.118121954 17.8498427,-0.118121954 18.4356291,0.467664484 C19.0214155,1.05345092 19.0214155,2.00319839 18.4356291,2.58898483 L11.5246139,9.5 L18.4356291,16.4110152 C19.0214155,16.9968016 19.0214155,17.9465491 18.4356291,18.5323355 C17.8498427,19.118122 16.9000952,19.118122 16.3143087,18.5323355 L9.40329358,11.6213203 L2.4922784,18.5323355 C1.90649197,19.118122 0.956744498,19.118122 0.37095806,18.5323355 C-0.214828377,17.9465491 -0.214828377,16.9968016 0.37095806,16.4110152 L7.28197323,9.5 L0.37095806,2.58898483 C-0.214828377,2.00319839 -0.214828377,1.05345092 0.37095806,0.467664484 C0.956744498,-0.118121954 1.90649197,-0.118121954 2.4922784,0.467664484 L9.40329358,7.37867966 Z"></path>
                </g>
            </g>
        </g>
    </g>
</svg>