<svg xmlns="http://www.w3.org/2000/svg" viewBox="0 0 19.87 20.54"><defs><style>.cls-1{fill:#fc6d21;stroke:#fc6d21;stroke-miterlimit:10;stroke-width:0.25px;}</style></defs><title>Fichier 6</title><g id="Calque_2" data-name="Calque 2"><g id="Calque_1-2" data-name="Calque 1"><path class="cls-1" d="M10,19a1.67,1.67,0,0,1-.35-.52,1.86,1.86,0,0,1,.43-2.06l3.62-3.62.38.38a3.64,3.64,0,0,1-.19,5.14,3.89,3.89,0,0,1-2.65,1.16A1.67,1.67,0,0,1,10,19Zm3.65-4.63-2.81,2.81a.79.79,0,0,0-.2.87.57.57,0,0,0,.57.35,2.81,2.81,0,0,0,1.91-.85A2.65,2.65,0,0,0,13.69,14.36Z"/><path class="cls-1" d="M.88,9.83A1.67,1.67,0,0,1,.4,8.59,3.89,3.89,0,0,1,1.56,5.94,3.64,3.64,0,0,1,6.7,5.75l.38.38L3.46,9.75a1.86,1.86,0,0,1-2.06.43A1.68,1.68,0,0,1,.88,9.83ZM5.51,6.18a2.65,2.65,0,0,0-3.19.52,2.82,2.82,0,0,0-.85,1.91.57.57,0,0,0,.35.57A.79.79,0,0,0,2.7,9Z"/><path class="cls-1" d="M18.22,1.65a1.5,1.5,0,0,1,.39,1.48,26.2,26.2,0,0,1-6.71,11.5l-1.65,1.65a1.26,1.26,0,0,1-1.77,0L3.59,11.4a1.26,1.26,0,0,1,0-1.77L5.24,8a26.2,26.2,0,0,1,11.5-6.71,1.5,1.5,0,0,1,1.48.39M19,.89A2.57,2.57,0,0,0,16.46.22h0a27.23,27.23,0,0,0-12,7L2.83,8.86a2.33,2.33,0,0,0,0,3.3L7.71,17A2.33,2.33,0,0,0,11,17l1.65-1.65a27.23,27.23,0,0,0,7-12h0A2.57,2.57,0,0,0,19,.89Z"/><path class="cls-1" d="M12.59,7.46a1.35,1.35,0,1,1-1.9,0,1.35,1.35,0,0,1,1.9,0m.76-.76a2.42,2.42,0,1,0,0,3.42,2.42,2.42,0,0,0,0-3.42Z"/><rect class="cls-1" x="7.39" y="6.69" width="1.08" height="10.49" transform="translate(-6.12 9.1) rotate(-45)"/><path class="cls-1" d="M1.29,18.77l-.07-.35a3.47,3.47,0,0,1,.62-2.86C2.43,15,3.65,13.74,5,15.07s.11,2.55-.48,3.14a3.47,3.47,0,0,1-2.86.62Zm2.93-2.93c-.41-.41-.66-.48-1.62.48a2.09,2.09,0,0,0-.37,1.51,2.09,2.09,0,0,0,1.51-.37C4.7,16.5,4.64,16.25,4.22,15.84Z"/><path class="cls-1" d="M.28,14.93a.54.54,0,0,1,0-.76l1.33-1.33a.54.54,0,0,1,.76.76L1,14.93A.54.54,0,0,1,.28,14.93Z"/><path class="cls-1" d="M4.47,20.26a.54.54,0,0,1,0-.76L7.7,16.26a.54.54,0,0,1,.76.76L5.23,20.26A.54.54,0,0,1,4.47,20.26Z"/></g></g></svg>