<?xml version="1.0" encoding="UTF-8"?>
<svg width="24px" height="24px" viewBox="0 0 24 24" version="1.1" xmlns="http://www.w3.org/2000/svg" xmlns:xlink="http://www.w3.org/1999/xlink">
    <!-- Generator: sketchtool 49.3 (51167) - http://www.bohemiancoding.com/sketch -->
    <title>250BAA10-6D69-4B06-8D83-DC6F72163B09</title>
    <desc>Created with sketchtool.</desc>
    <defs></defs>
    <g id="Page-1" stroke="none" stroke-width="1" fill="none" fill-rule="evenodd" stroke-linejoin="round">
        <g id="5.-TIMELINE-:clic-film-+-article" transform="translate(-1264.000000, -415.000000)" stroke="#67C0FC">
            <g id="bulle-suite-film-copy" transform="translate(766.000000, 130.000000)">
                <g id="icon_source-blue" transform="translate(498.000000, 285.000000)">
                    <g id="Group" transform="translate(1.000000, 1.000000)">
                        <path d="M21.7303706,10.9459706 C21.7303706,16.9021471 16.9020176,21.7305 10.9458412,21.7305 C4.99031176,21.7305 0.161958824,16.9021471 0.161958824,10.9459706 C0.161958824,4.99044118 4.99031176,0.162088235 10.9458412,0.162088235 C16.9020176,0.162088235 21.7303706,4.99044118 21.7303706,10.9459706 Z" id="Stroke-1" stroke-width="2"></path>
                        <path d="M10.9458412,21.7305 L10.9458412,0.162088235" id="Stroke-3" stroke-width="2"></path>
                        <path d="M11.1967059,21.7305 C11.1967059,21.7305 16.7432941,17.7303824 16.7141765,10.6949118 C16.6863529,3.91502941 11.1967059,0.162088235 11.1967059,0.162088235" id="Stroke-5" stroke-width="2"></path>
                        <path d="M10.6955588,21.7305 C10.6955588,21.7305 5.14897059,17.7303824 5.17808824,10.6949118 C5.20591176,3.91502941 10.6955588,0.162088235 10.6955588,0.162088235" id="Stroke-7" stroke-width="2"></path>
                        <path d="M0.913905882,7.18429412 L20.9779059,7.18429412" id="Stroke-9" stroke-width="2"></path>
                        <path d="M0.913905882,14.7082941 L20.9779059,14.7082941" id="Stroke-11" stroke-width="2"></path>
                    </g>
                </g>
            </g>
        </g>
    </g>
</svg>