<?xml version="1.0" encoding="utf-8"?>
<!-- Generator: Adobe Illustrator 19.0.0, SVG Export Plug-In . SVG Version: 6.00 Build 0)  -->
<svg version="1.1" id="Calque_1" xmlns="http://www.w3.org/2000/svg" xmlns:xlink="http://www.w3.org/1999/xlink" x="0px" y="0px"
	 viewBox="-132 132.5 19 19" style="enable-background:new -132 132.5 19 19;" xml:space="preserve">
<style type="text/css">
	.st0{fill:#FEFEFE;}
</style>
<title>icon_close</title>
<desc>Created with Sketch.</desc>
<g id="Page-1">
	<g id="_x35_.-TIMELINE" transform="translate(-681.000000, -237.000000)">
		<g id="bulle-300-x-435" transform="translate(420.000000, 216.000000)">
			<g id="icon_close" transform="translate(261.000000, 21.000000)">
				<path class="st0" d="M-122.8,138.2l4.9-4.9c1-1,2.6-1,3.5,0s1,2.6,0,3.5l-4.9,4.9l4.9,4.9c1,1,1,2.6,0,3.5c-1,0.9-2.6,1-3.5,0
					l-4.9-4.9l-4.9,4.9c-1,1-2.6,1-3.5,0c-0.9-1-1-2.6,0-3.5l4.9-4.9l-5-4.9c-1-1-1-2.6,0-3.5c1-0.9,2.6-1,3.5,0L-122.8,138.2z"/>
			</g>
		</g>
	</g>
</g>
</svg>
