<?xml version="1.0" encoding="UTF-8"?>
<svg width="19px" height="19px" viewBox="0 0 19 19" version="1.1" xmlns="http://www.w3.org/2000/svg" xmlns:xlink="http://www.w3.org/1999/xlink">
    <!-- Generator: sketchtool 49.2 (51160) - http://www.bohemiancoding.com/sketch -->
    <title>C7C20C6A-6B27-4801-ACCB-778CCEB16156</title>
    <desc>Created with sketchtool.</desc>
    <defs></defs>
    <g id="Page-1" stroke="none" stroke-width="1" fill="none" fill-rule="evenodd">
        <g id="5.-TIMELINE" transform="translate(-681.000000, -237.000000)" fill="#FC6D21">
            <g id="bulle-300-x-435" transform="translate(420.000000, 216.000000)">
                <g id="icon_close" transform="translate(261.000000, 21.000000)">
                    <path d="M9.21751442,5.68198052 L14.1672619,0.732233047 C15.1435726,-0.244077682 16.7264851,-0.244077682 17.7027958,0.732233047 C18.6791065,1.70854378 18.6791065,3.29145622 17.7027958,4.26776695 L12.7530483,9.21751442 L17.7027958,14.1672619 C18.6791065,15.1435726 18.6791065,16.7264851 17.7027958,17.7027958 C16.7264851,18.6791065 15.1435726,18.6791065 14.1672619,17.7027958 L9.21751442,12.7530483 L4.26776695,17.7027958 C3.29145622,18.6791065 1.70854378,18.6791065 0.732233047,17.7027958 C-0.244077682,16.7264851 -0.244077682,15.1435726 0.732233047,14.1672619 L5.68198052,9.21751442 L0.732233047,4.26776695 C-0.244077682,3.29145622 -0.244077682,1.70854378 0.732233047,0.732233047 C1.70854378,-0.244077682 3.29145622,-0.244077682 4.26776695,0.732233047 L9.21751442,5.68198052 Z"></path>
                </g>
            </g>
        </g>
    </g>
</svg>