<?xml version="1.0" encoding="UTF-8"?>
<svg width="34px" height="34px" viewBox="0 0 34 34" version="1.1" xmlns="http://www.w3.org/2000/svg" xmlns:xlink="http://www.w3.org/1999/xlink">
    <!-- Generator: sketchtool 49.2 (51160) - http://www.bohemiancoding.com/sketch -->
    <title>B13F904D-1A4F-43E9-A810-A02501A23B63</title>
    <desc>Created with sketchtool.</desc>
    <defs></defs>
    <g id="Page-1" stroke="none" stroke-width="1" fill="none" fill-rule="evenodd" stroke-linejoin="round">
        <g id="5.-TIMELINE" transform="translate(-673.000000, -604.000000)" stroke="#FD6D22">
            <g id="bulle-300-x-435" transform="translate(420.000000, 216.000000)">
                <g id="icon_web" transform="translate(255.000000, 390.000000)">
                    <g>
                        <path d="M29.8529118,15.1470882 C29.8529118,23.2691471 23.2687941,29.8532647 15.1467353,29.8532647 C7.02555882,29.8532647 0.441441176,23.2691471 0.441441176,15.1470882 C0.441441176,7.02502941 7.02555882,0.440911765 15.1467353,0.440911765 C23.2687941,0.440911765 29.8529118,7.02502941 29.8529118,15.1470882 Z" id="Stroke-1" stroke-width="3"></path>
                        <path d="M15.1469118,29.8529118 L15.1469118,0.441441176" id="Stroke-3" stroke-width="3"></path>
                        <path d="M15.4889118,29.8529118 C15.4889118,29.8529118 23.0524412,24.3990882 23.0127353,14.8052647 C22.9747941,5.55908824 15.4889118,0.441441176 15.4889118,0.441441176" id="Stroke-5" stroke-width="3"></path>
                        <path d="M14.8050882,29.8529118 C14.8050882,29.8529118 7.24155882,24.3990882 7.28126471,14.8052647 C7.31920588,5.55908824 14.8050882,0.441441176 14.8050882,0.441441176" id="Stroke-7" stroke-width="3"></path>
                        <path d="M1.46717647,10.0170882 L28.8271765,10.0170882" id="Stroke-9" stroke-width="3"></path>
                        <path d="M1.46717647,20.277 L28.8271765,20.277" id="Stroke-11" stroke-width="3"></path>
                    </g>
                </g>
            </g>
        </g>
    </g>
</svg>