<?xml version="1.0" encoding="UTF-8"?>
<svg width="24px" height="24px" viewBox="0 0 24 24" version="1.1" xmlns="http://www.w3.org/2000/svg" xmlns:xlink="http://www.w3.org/1999/xlink">
    <!-- Generator: sketchtool 49.2 (51160) - http://www.bohemiancoding.com/sketch -->
    <title>02072CB4-267B-4ABF-8CE8-187836392349</title>
    <desc>Created with sketchtool.</desc>
    <defs></defs>
    <g id="Page-1" stroke="none" stroke-width="1" fill="none" fill-rule="evenodd">
        <g id="5.-TIMELINE" transform="translate(-623.000000, -609.000000)" fill="#FC6D21">
            <g id="bulle-300-x-435" transform="translate(420.000000, 216.000000)">
                <g id="icon_more" transform="translate(203.000000, 393.000000)">
                    <path d="M9.5,9.5 L9.5,2.5 C9.5,1.11928813 10.6192881,5.27779181e-16 12,6.123234e-16 C13.3807119,6.96867618e-16 14.5,1.11928813 14.5,2.5 L14.5,9.5 L21.5,9.5 C22.8807119,9.5 24,10.6192881 24,12 C24,13.3807119 22.8807119,14.5 21.5,14.5 L14.5,14.5 L14.5,21.5 C14.5,22.8807119 13.3807119,24 12,24 C10.6192881,24 9.5,22.8807119 9.5,21.5 L9.5,14.5 L2.5,14.5 C1.11928813,14.5 -2.80995401e-14,13.3807119 -2.82686286e-14,12 C-2.8437717e-14,10.6192881 1.11928813,9.5 2.5,9.5 L9.5,9.5 Z"></path>
                </g>
            </g>
        </g>
    </g>
</svg>